# File created by Blade
# Date/Time:  Tue Jan 27 19:58:39 2015
#---------------------------------------------------------
:version 1.10
:name HOM
:units
  mass 1.0
  length 1.000000
  angle deg
:documentation
     Acclaim Skeleton File
:root
   axis xyz
   order TX TY TZ RX RY RZ
   position 0.000000 0.000000 0.000000
   orientation 0 0 0
:bonedata
   begin
      id 1
      name Spine_dum
      direction 0.000000 1.000000 0.000000
      length 6.116652
      axis 0.0 0.0 0.0 xyz
   end
   begin
      id 2
      name LeftUpLeg_dum
      direction 1.000000 0.000000 0.000000
      length 4.711765
      axis 0.0 0.0 0.0 xyz
   end
   begin
      id 3
      name RightUpLeg_dum
      direction -1.000000 0.000000 0.000000
      length 4.711765
      axis 0.0 0.0 0.0 xyz
   end
   begin
      id 4
      name Spine
      direction 0.000000 1.000000 0.000000
      length 0.000000
      axis 0.0 0.0 0.0 xyz
      dof rx ry rz
   end
   begin
      id 5
      name Spine_dum1
      direction 0.000000 1.000000 0.000000
      length 15.225563
      axis 0.0 0.0 0.0 xyz
   end
   begin
      id 6
      name Spine_dum2
      direction 0.000000 1.000000 0.000000
      length 8.977654
      axis 0.0 0.0 0.0 xyz
   end
   begin
      id 7
      name Spine_dum3
      direction 0.000000 1.000000 0.000000
      length 8.977654
      axis 0.0 0.0 0.0 xyz
   end
   begin
      id 8
      name Head
      direction 0.000000 1.000000 0.000000
      length 4.527550
      axis 0.0 0.0 0.0 xyz
      dof rx ry rz
   end
   begin
      id 9
      name LeftShoulder
      direction 1.000000 0.000000 0.000000
      length 7.110130
      axis 0.0 0.0 -90.0 xyz
      dof rx ry rz
   end
   begin
      id 10
      name LeftArm
      direction 1.000000 0.000000 0.000000
      length 10.398341
      axis 0.0 0.0 -90.0 xyz
      dof rx ry rz
   end
   begin
      id 11
      name LeftForeArm
      direction 1.000000 0.000000 0.000000
      length 8.888997
      axis 0.0 0.0 -90.0 xyz
      dof ry rz rx
   end
   begin
      id 12
      name LeftHand
      direction 0.000000 0.000000 0.000000
      length 0.000000
      axis 0.0 0.0 -90.0 xyz
      dof rx ry rz
   end
   begin
      id 13
      name LeftHand_dum1
      direction 0.000000 0.000000 0.000000
      length 0.000000
      axis 0.0 0.0 -90.0 xyz
   end
   begin
      id 14
      name LeftHand_dum2
      direction 1.000000 0.000000 0.000000
      length 3.937000
      axis 0.0 0.0 -90.0 xyz
   end
   begin
      id 15
      name LeftHandThumb1
      direction 0.000000 0.000000 1.000000
      length 3.937000
      axis 0.0 0.0 -90.0 xyz
      dof rx rz ry
   end
   begin
      id 16
      name RightShoulder
      direction -1.000000 0.000000 0.000000
      length 7.110130
      axis 0.0 0.0 90.0 xyz
      dof rx ry rz
   end
   begin
      id 17
      name RightArm
      direction -1.000000 0.000000 0.000000
      length 10.398341
      axis 0.0 0.0 90.0 xyz
      dof rx ry rz
   end
   begin
      id 18
      name RightForeArm
      direction -1.000000 0.000000 0.000000
      length 8.888997
      axis 0.0 0.0 90.0 xyz
      dof ry rz rx
   end
   begin
      id 19
      name RightHand
      direction 0.000000 0.000000 0.000000
      length 0.000000
      axis 0.0 0.0 90.0 xyz
      dof rx ry rz
   end
   begin
      id 20
      name RightHand_dum1
      direction 0.000000 0.000000 0.000000
      length 0.000000
      axis 0.0 0.0 90.0 xyz
   end
   begin
      id 21
      name RightHand_dum2
      direction -1.000000 0.000000 0.000000
      length 3.937000
      axis 0.0 0.0 90.0 xyz
   end
   begin
      id 22
      name RightHandThumb1
      direction 0.000000 0.000000 1.000000
      length 3.937000
      axis 0.0 0.0 90.0 xyz
      dof rx rz ry
   end
   begin
      id 23
      name LeftUpLeg
      direction 0.000000 -1.000000 0.000000
      length 15.510451
      axis 0.0 0.0 0.0 xyz
      dof rx ry rz
   end
   begin
      id 24
      name LeftLeg
      direction 0.000000 -1.000000 0.000000
      length 14.858061
      axis 0.0 0.0 0.0 xyz
      dof rx ry rz
   end
   begin
      id 25
      name LeftFoot
      direction 0.000000 -0.258819 0.965926
      length 5.128852
      axis 15.0 0.0 0.0 xyz
      dof rx ry rz
   end
   begin
      id 26
      name LeftToeBase
      direction 0.000000 0.000000 1.000000
      length 2.952750
      axis 0.0 0.0 0.0 xyz
      dof rx ry rz
   end
   begin
      id 27
      name RightUpLeg
      direction 0.000000 -1.000000 0.000000
      length 15.510451
      axis 0.0 0.0 0.0 xyz
      dof rx ry rz
   end
   begin
      id 28
      name RightLeg
      direction 0.000000 -1.000000 0.000000
      length 14.858061
      axis 0.0 0.0 0.0 xyz
      dof rx ry rz
   end
   begin
      id 29
      name RightFoot
      direction 0.000000 -0.258819 0.965926
      length 5.128852
      axis 15.0 0.0 0.0 xyz
      dof rx ry rz
   end
   begin
      id 30
      name RightToeBase
      direction 0.000000 0.000000 1.000000
      length 2.952750
      axis 0.0 0.0 0.0 xyz
      dof rx ry rz
   end
:hierarchy
   begin
      root Spine_dum LeftUpLeg_dum RightUpLeg_dum
      Spine_dum Spine
      LeftUpLeg_dum LeftUpLeg
      RightUpLeg_dum RightUpLeg
      Spine Spine_dum1 Spine_dum2 Spine_dum3
      Spine_dum1 Head
      Spine_dum2 LeftShoulder
      Spine_dum3 RightShoulder
      LeftShoulder LeftArm
      LeftArm LeftForeArm
      LeftForeArm LeftHand
      LeftHand LeftHand_dum1 LeftHand_dum2
      LeftHand_dum1 LeftHandThumb1
      RightShoulder RightArm
      RightArm RightForeArm
      RightForeArm RightHand
      RightHand RightHand_dum1 RightHand_dum2
      RightHand_dum1 RightHandThumb1
      LeftUpLeg LeftLeg
      LeftLeg LeftFoot
      LeftFoot LeftToeBase
      RightUpLeg RightLeg
      RightLeg RightFoot
      RightFoot RightToeBase
   end

# File created by Blade
# Date/Time:  Tue Jan 27 19:58:31 2015
# Frame Rate: 120.000 fps
#------------------------------------------------------
:FULLY-SPECIFIED
:DEGREES
605
root 5.625134 32.901629 3.877989 -24.740781 36.744897 -11.660806
Spine 18.263589 -10.775610 -0.216505
Head 6.455187 -22.024286 13.155274
LeftShoulder -13.335350 -3.523755 31.341966
LeftArm -4.771438 -3.500428 -84.130841
LeftForeArm -1.519639 -0.000000 112.151085
LeftHand 12.204832 -0.000000 1.136763
LeftHandThumb1 -26.253704 0.000000 33.147579
RightShoulder -26.978113 -21.838002 -17.946949
RightArm 3.483025 -18.488193 99.743512
RightForeArm -6.607022 0.000000 16.827264
RightHand 16.991520 -0.000000 6.397815
RightHandThumb1 -24.326973 -0.000000 -32.862282
LeftUpLeg 18.419375 0.505772 5.085352
LeftLeg 9.333629 -0.000000 -0.000000
LeftFoot -14.232951 -10.130745 -18.622927
LeftToeBase 30.988412 -0.000000 -0.000000
RightUpLeg -66.761935 15.529412 24.871744
RightLeg 49.618718 -0.000000 -0.000000
RightFoot 30.794726 -18.984462 15.961139
RightToeBase 7.881742 -0.000000 -0.000000
606
root 5.624332 32.904990 3.880948 -24.604918 36.544014 -11.629114
Spine 18.218757 -10.727371 -0.226818
Head 6.394698 -21.923198 13.139052
LeftShoulder -13.425729 -3.354680 31.330651
LeftArm -4.848851 -3.490498 -84.197195
LeftForeArm -1.423349 -0.000000 112.437227
LeftHand 12.199443 -0.000000 1.091755
LeftHandThumb1 -26.253704 0.000000 33.147579
RightShoulder -26.985305 -21.811919 -17.958932
RightArm 3.420112 -18.506713 99.869225
RightForeArm -6.901324 -0.000000 16.758758
RightHand 16.943650 0.000000 6.432075
RightHandThumb1 -24.326973 -0.000000 -32.862282
LeftUpLeg 18.402660 0.554729 5.092179
LeftLeg 9.236882 -0.000000 -0.000000
LeftFoot -14.218843 -10.001093 -18.643499
LeftToeBase 30.936646 -0.000000 -0.000000
RightUpLeg -66.876933 15.544582 24.944127
RightLeg 50.941074 -0.000000 -0.000000
RightFoot 30.873984 -18.943583 15.607787
RightToeBase 7.529464 -0.000000 -0.000000
607
root 5.623250 32.906513 3.883796 -24.459576 36.338194 -11.591895
Spine 18.153535 -10.657251 -0.222673
Head 6.359282 -21.840581 13.100221
LeftShoulder -13.529909 -3.278344 31.362937
LeftArm -4.989724 -3.429111 -84.257966
LeftForeArm -1.333975 -0.000000 112.662966
LeftHand 12.177157 -0.000000 1.138132
LeftHandThumb1 -26.253704 0.000000 33.147579
RightShoulder -26.980930 -21.803206 -18.000617
RightArm 3.354428 -18.374977 100.033640
RightForeArm -7.254151 -0.000000 16.639118
RightHand 17.049374 0.000000 6.755843
RightHandThumb1 -24.326973 -0.000000 -32.862282
LeftUpLeg 18.370589 0.615372 5.100639
LeftLeg 9.157678 -0.000000 -0.000000
LeftFoot -14.211528 -9.905912 -18.707630
LeftToeBase 30.823753 -0.000000 -0.000000
RightUpLeg -67.019112 15.583070 24.985506
RightLeg 52.323829 -0.000000 -0.000000
RightFoot 30.875064 -19.001342 15.472815
RightToeBase 7.921260 -0.000000 -0.000000
608
root 5.619925 32.908573 3.887816 -24.300174 36.137516 -11.556757
Spine 18.073422 -10.596524 -0.237699
Head 6.325989 -21.715696 13.097613
LeftShoulder -13.634143 -3.029001 31.345620
LeftArm -4.945757 -3.380702 -84.287914
LeftForeArm -1.313867 0.000000 112.895531
LeftHand 12.197114 0.000000 1.061552
LeftHandThumb1 -26.253704 0.000000 33.147579
RightShoulder -26.950111 -21.853294 -17.975679
RightArm 3.353041 -18.602708 100.091803
RightForeArm -7.138754 -0.000000 16.588398
RightHand 16.954008 -0.000000 6.104812
RightHandThumb1 -24.326973 -0.000000 -32.862282
LeftUpLeg 18.313133 0.690264 5.120112
LeftLeg 9.095706 -0.000000 -0.000000
LeftFoot -14.199288 -9.801836 -18.715806
LeftToeBase 30.671524 -0.000000 -0.000000
RightUpLeg -67.179378 15.637705 24.982635
RightLeg 53.726299 -0.000000 -0.000000
RightFoot 30.863646 -19.280830 15.509091
RightToeBase 8.344736 -0.000000 -0.000000
